<?xml version="1.0" encoding="UTF-8"?>
<svg xmlns="http://www.w3.org/2000/svg" xmlns:xlink="http://www.w3.org/1999/xlink" width="375pt" height="374.999991pt" viewBox="0 0 375 374.999991" version="1.2">
<g id="surface1">
<path style=" stroke:none;fill-rule:nonzero;fill:rgb(0%,0%,0%);fill-opacity:1;" d="M 134.59375 371.25 C 107.558594 367.671875 93.886719 340.027344 104.027344 310.398438 C 114.222656 281.148438 143.742188 260.039062 170.625 263.230469 C 178.054688 264.15625 184.667969 266.820312 190.101562 270.871094 C 187.125 227.761719 184.222656 183.804688 181.039062 139.800781 C 177.820312 95.285156 174.863281 49.574219 172.304688 3.402344 C 172.28125 2.871094 172.683594 2.71875 172.894531 2.675781 C 177.050781 1.996094 181.15625 1.152344 185.632812 0.195312 C 185.863281 0.144531 186.273438 0.144531 186.011719 0.597656 C 195.332031 42.660156 221.71875 72.96875 243.324219 103.019531 C 264.851562 132.980469 281.503906 162.902344 270.566406 203.097656 C 268.289062 211.460938 263.09375 225.625 255.691406 237.792969 C 255.113281 238.710938 253.707031 239.390625 252.941406 238.644531 C 251.703125 238.273438 251.5625 236.851562 251.5625 235.808594 C 255.34375 223.71875 259.902344 210.265625 260.726562 202.695312 C 262.371094 187.464844 262.320312 175.140625 259.554688 165.097656 C 247.695312 121.898438 206.863281 121.601562 191.929688 97.191406 C 196.242188 163.191406 200.484375 228.128906 204.722656 291.757812 C 205.589844 304.316406 206.636719 312.097656 201.484375 325.53125 C 190.816406 354.574219 161.300781 374.699219 134.59375 371.25 Z M 134.59375 371.25 "/>
</g>
</svg>
